<?xml version="1.0" encoding="UTF-8"?>
<svg width="4px" height="18px" viewBox="0 0 4 18" version="1.1" xmlns="http://www.w3.org/2000/svg" xmlns:xlink="http://www.w3.org/1999/xlink">
    <!-- Generator: sketchtool 51.3 (57544) - http://www.bohemiancoding.com/sketch -->
    <title>9669F0F7-F6A7-49DE-B3F8-9F7AB9C35121</title>
    <desc>Created with sketchtool.</desc>
    <defs></defs>
    <g id="Tooltips" stroke="none" stroke-width="1" fill="none" fill-rule="evenodd">
        <g id="Tooltips---Projects" transform="translate(-1120.000000, -763.000000)" fill="#FFFFFF">
            <g id="icon-/-3dots-copy-7" transform="translate(1120.000000, 763.000000)">
                <g id="icon-/-3dots">
                    <g id="3dots-icon">
                        <path d="M2,4 C0.895758759,4 -8.8817842e-16,3.10424124 0,2 C0,0.895758759 0.895758759,-2.02845825e-16 2,-9.86076132e-32 C3.10424124,2.02845825e-16 4,0.895758759 4,2 C4,3.10424124 3.10424124,4 2,4 Z M2,11 C0.895758759,11 -8.8817842e-16,10.1042412 0,9 C0,7.89575876 0.895758759,7 2,7 C3.10424124,7 4,7.89575876 4,9 C4,10.1042412 3.10424124,11 2,11 Z M2,18 C0.895758759,18 -8.8817842e-16,17.1042412 0,16 C0,14.8957588 0.895758759,14 2,14 C3.10424124,14 4,14.8957588 4,16 C4,17.1042412 3.10424124,18 2,18 Z" id="bolinhas-copy-3"></path>
                    </g>
                </g>
            </g>
        </g>
    </g>
</svg>